<?xml version="1.0" encoding="utf-8"?>
<!-- Generator: Adobe Illustrator 23.0.3, SVG Export Plug-In . SVG Version: 6.00 Build 0)  -->
<svg version="1.1" id="レイヤー_1" xmlns="http://www.w3.org/2000/svg" xmlns:xlink="http://www.w3.org/1999/xlink" x="0px"
	 y="0px" viewBox="0 0 340 93" style="enable-background:new 0 0 340 93;" xml:space="preserve">
<style type="text/css">
	.st0{fill:#FDFDFF;}
	.st1{fill-rule:evenodd;clip-rule:evenodd;fill:#192F60;}
	.st2{fill:#192F60;}
</style>
<g id="長方形_617_2_">
	<g>
		<rect x="0" class="st0" width="340" height="93"/>
	</g>
</g>
<g id="Delivering_Happiness_x2C___One_Ride_At_a_Time">
	<g>
		<path class="st1" d="M185,37.3c0.9-0.8,1.3-1.9,1.3-3.3c0-1.4-0.4-2.5-1.3-3.3c-0.8-0.8-1.9-1.2-3.3-1.2h-2.9v9h2.9
			C183,38.6,184.1,38.1,185,37.3z M180.4,31h1.3c0.9,0,1.6,0.3,2.1,0.8c0.5,0.6,0.7,1.3,0.7,2.2c0,0.9-0.3,1.6-0.7,2.2
			c-0.5,0.6-1.2,0.9-2.1,0.9h-1.3V31z M190.7,38.8c0.8,0,1.4-0.2,1.9-0.6c0.5-0.4,0.8-0.9,0.9-1.6h-1.7c-0.1,0.6-0.5,0.9-1.2,0.9
			c-0.5,0-0.9-0.2-1.1-0.5c-0.3-0.3-0.4-0.8-0.4-1.3h4.4c0-0.3,0.1-0.6,0.1-0.9c0-0.3-0.1-0.7-0.2-1.1c-0.1-0.4-0.3-0.7-0.5-1
			c-0.5-0.7-1.2-1-2.2-1c-0.9,0-1.6,0.3-2.2,0.9c-0.6,0.7-0.9,1.5-0.9,2.6c0,1.1,0.3,1.9,0.9,2.6C189.1,38.4,189.8,38.8,190.7,38.8z
			 M189.6,33.4c0.3-0.3,0.6-0.5,1.1-0.5c0.2,0,0.5,0,0.6,0.1c0.5,0.3,0.7,0.7,0.7,1.5h-2.9C189.2,34.1,189.4,33.7,189.6,33.4z
			 M197,29h-1.6v9.5h1.6V29z M200.2,30.6c0.3,0,0.6-0.1,0.7-0.3c0.2-0.2,0.3-0.4,0.3-0.7c0-0.3-0.1-0.5-0.3-0.7
			c-0.2-0.2-0.4-0.3-0.7-0.3c-0.3,0-0.6,0.1-0.7,0.3c-0.2,0.2-0.3,0.4-0.3,0.7c0,0.3,0.1,0.5,0.3,0.7
			C199.6,30.5,199.9,30.6,200.2,30.6z M199.4,38.6h1.6v-6.8h-1.6V38.6z M207.4,31.8l-1.6,5.1l-1.5-5.1h-1.9l2.5,6.7h1.8l2.5-6.7
			H207.4z M213.1,37.4c-0.5,0-0.9-0.2-1.1-0.5c-0.2-0.3-0.4-0.8-0.4-1.3h4.4c0-0.3,0.1-0.6,0.1-0.9c0-0.3-0.1-0.7-0.2-1.1
			c-0.1-0.4-0.3-0.7-0.5-1c-0.5-0.7-1.2-1-2.2-1c-0.9,0-1.6,0.3-2.2,0.9c-0.6,0.7-0.9,1.5-0.9,2.6c0,1.1,0.3,1.9,0.9,2.6
			c0.6,0.6,1.3,1,2.2,1c0.8,0,1.4-0.2,1.9-0.6c0.5-0.4,0.8-0.9,0.9-1.6h-1.7C214.2,37.1,213.8,37.4,213.1,37.4z M212,33.4
			c0.3-0.3,0.6-0.5,1.1-0.5c0.3,0,0.5,0,0.6,0.1c0.5,0.3,0.7,0.7,0.7,1.5h-2.9C211.6,34.1,211.8,33.7,212,33.4z M221.1,33.3
			c0.3,0,0.5,0,0.8,0.1l0-1.6c-0.2-0.1-0.4-0.1-0.6-0.1c-0.8,0-1.4,0.5-1.8,1.5v-1.3h-1.6v6.8h1.6v-3
			C219.4,34.1,220,33.3,221.1,33.3z M224.2,30.6c0.3,0,0.6-0.1,0.7-0.3c0.2-0.2,0.3-0.4,0.3-0.7c0-0.3-0.1-0.5-0.3-0.7
			c-0.2-0.2-0.4-0.3-0.7-0.3c-0.3,0-0.6,0.1-0.7,0.3c-0.2,0.2-0.3,0.4-0.3,0.7c0,0.3,0.1,0.5,0.3,0.7
			C223.6,30.5,223.9,30.6,224.2,30.6z M223.4,38.6h1.6v-6.8h-1.6V38.6z M229,35.4c0-0.8,0.2-1.4,0.5-1.7c0.3-0.4,0.7-0.6,1.1-0.6
			c0.4,0,0.8,0.1,1,0.4c0.2,0.3,0.4,0.6,0.4,1.1v3.9h1.6v-3.9c0-0.9-0.2-1.6-0.6-2.2c-0.4-0.5-1-0.8-1.9-0.8c-1,0-1.7,0.4-2.1,1.3
			l-0.2-1.2h-1.4v6.7h1.6V35.4z M242.1,40.2c0.2-0.3,0.3-0.7,0.3-1.1c0-1.1-0.8-1.6-2.3-1.6h-2.3c-0.7,0-1.1-0.2-1.1-0.6
			c0-0.3,0.2-0.6,0.6-0.7c0.4,0.1,0.8,0.2,1.2,0.2c0.8,0,1.5-0.2,2-0.7c0.3-0.2,0.5-0.5,0.6-0.8c0.2-0.3,0.2-0.7,0.2-1.1
			s-0.2-0.9-0.5-1.3c0-0.5,0.4-0.8,1.2-0.8l0.1-1.6c-0.5,0-1,0.2-1.4,0.5c-0.4,0.3-0.6,0.7-0.7,1.3c-0.5-0.3-1.1-0.4-1.8-0.4
			c-0.7,0-1.4,0.2-1.9,0.7c-0.6,0.5-0.9,1-0.9,1.8c0,0.7,0.3,1.3,0.8,1.7c-0.3,0.1-0.6,0.2-0.8,0.5c-0.2,0.2-0.3,0.5-0.3,0.8
			c0,0.5,0.3,0.9,0.8,1.2c-0.4,0.1-0.8,0.2-1,0.5c-0.3,0.2-0.4,0.6-0.4,1c0,0.6,0.3,1.2,1,1.6c0.7,0.5,1.6,0.7,2.7,0.7
			c1.1,0,2.1-0.3,2.9-0.9C241.6,40.9,241.9,40.6,242.1,40.2z M237.6,33.1c0.2-0.2,0.5-0.4,1-0.4c0.4,0,0.7,0.1,1,0.4
			s0.3,0.5,0.3,0.9c0,0.4-0.1,0.7-0.3,0.9c-0.2,0.2-0.5,0.4-1,0.4c-0.4,0-0.7-0.1-1-0.4c-0.2-0.2-0.3-0.5-0.3-0.9
			C237.2,33.7,237.3,33.4,237.6,33.1z M240.1,40.3c-0.2,0.1-0.4,0.2-0.7,0.3c-0.3,0.1-0.7,0.1-1.2,0.1s-0.9-0.1-1.3-0.3
			c-0.4-0.2-0.5-0.4-0.5-0.8c0-0.6,0.4-0.9,1.3-1h2.4c0.2,0,0.4,0.1,0.5,0.2c0.1,0.1,0.2,0.2,0.2,0.4
			C240.7,39.7,240.5,40,240.1,40.3z M253,33.3h-3.9v-3.8h-1.6v9h1.6v-3.8h3.9v3.8h1.6v-9H253V33.3z M259.8,31.6
			c-1,0-1.7,0.2-2.3,0.5c-0.5,0.3-0.8,0.9-0.8,1.7h1.8c0-0.3,0.1-0.6,0.3-0.7c0.2-0.2,0.6-0.3,1-0.3c0.4,0,0.7,0.1,0.9,0.3
			c0.2,0.2,0.3,0.6,0.3,1v0.7c-0.7-0.2-1.3-0.3-1.9-0.3c-0.9,0-1.5,0.2-2,0.5c-0.5,0.3-0.7,0.8-0.7,1.4s0.2,1.1,0.7,1.5
			c0.5,0.4,1.2,0.6,2,0.6c0.9,0,1.6-0.4,2-1.1l0.1,0.9h1.4v-4.3c0-0.5-0.1-0.8-0.2-1.2C262.1,32.1,261.2,31.6,259.8,31.6z M260.6,37
			c-0.3,0.3-0.7,0.5-1.1,0.5c-0.4,0-0.8-0.1-1-0.3c-0.2-0.2-0.3-0.4-0.3-0.6c0-0.6,0.4-0.9,1.3-0.9c0.5,0,1,0.1,1.5,0.2
			C261.1,36.4,260.9,36.7,260.6,37z M270.5,37.8c0.6-0.7,1-1.5,1-2.6c0-1.1-0.3-1.9-0.9-2.6c-0.6-0.6-1.3-0.9-2.1-0.9
			c-0.9,0-1.5,0.4-1.9,1.1l-0.2-0.9h-1.3v10h1.6V38c0.4,0.5,1,0.7,1.8,0.7C269.2,38.8,269.9,38.4,270.5,37.8z M267,36.9
			c-0.3-0.3-0.5-0.6-0.5-1.1v-1.2c0-0.5,0.2-0.9,0.5-1.1s0.7-0.4,1.1-0.4c0.5,0,0.8,0.2,1.2,0.6c0.3,0.4,0.5,0.9,0.5,1.5
			s-0.2,1.2-0.6,1.6c-0.2,0.2-0.4,0.3-0.6,0.4s-0.4,0.1-0.6,0.1C267.6,37.3,267.3,37.1,267,36.9z M276.6,31.6
			c-0.9,0-1.5,0.4-1.9,1.1l-0.2-0.9h-1.3v10h1.6V38c0.4,0.5,1,0.7,1.8,0.7c0.8,0,1.5-0.3,2.1-0.9c0.6-0.7,1-1.5,1-2.6
			c0-1.1-0.3-1.9-0.9-2.6C278.2,31.9,277.5,31.6,276.6,31.6z M277.5,36.8c-0.2,0.2-0.4,0.3-0.6,0.4s-0.4,0.1-0.6,0.1
			c-0.4,0-0.8-0.1-1.1-0.4c-0.3-0.3-0.5-0.6-0.5-1.1v-1.2c0-0.5,0.2-0.9,0.5-1.1s0.7-0.4,1.1-0.4s0.8,0.2,1.2,0.6
			c0.3,0.4,0.5,0.9,0.5,1.5S277.9,36.4,277.5,36.8z M281.5,38.6h1.6v-6.8h-1.6V38.6z M282.3,30.6c0.3,0,0.6-0.1,0.7-0.3
			c0.2-0.2,0.3-0.4,0.3-0.7c0-0.3-0.1-0.5-0.3-0.7c-0.2-0.2-0.4-0.3-0.7-0.3c-0.3,0-0.6,0.1-0.7,0.3c-0.2,0.2-0.3,0.4-0.3,0.7
			c0,0.3,0.1,0.5,0.3,0.7C281.8,30.5,282,30.6,282.3,30.6z M289.3,31.6c-1,0-1.7,0.4-2.1,1.3l-0.2-1.2h-1.4v6.7h1.6v-3.1
			c0-0.8,0.2-1.4,0.5-1.7c0.3-0.4,0.7-0.6,1.1-0.6c0.4,0,0.8,0.1,1,0.4c0.2,0.3,0.4,0.6,0.4,1.1v3.9h1.6v-3.9c0-0.9-0.2-1.6-0.6-2.2
			C290.7,31.9,290.1,31.6,289.3,31.6z M299.4,34.7c0-0.3-0.1-0.7-0.2-1.1c-0.1-0.4-0.3-0.7-0.5-1c-0.5-0.7-1.2-1-2.2-1
			c-0.9,0-1.6,0.3-2.2,0.9c-0.6,0.7-0.9,1.5-0.9,2.6c0,1.1,0.3,1.9,0.9,2.6c0.6,0.6,1.3,1,2.2,1c0.8,0,1.4-0.2,1.9-0.6
			c0.5-0.4,0.8-0.9,0.9-1.6h-1.7c-0.1,0.6-0.5,0.9-1.2,0.9c-0.5,0-0.9-0.2-1.1-0.5c-0.3-0.3-0.4-0.8-0.4-1.3h4.4
			C299.4,35.3,299.4,35,299.4,34.7z M295,34.5c0-0.5,0.2-0.9,0.5-1.2c0.3-0.3,0.6-0.5,1.1-0.5c0.3,0,0.5,0,0.6,0.1
			c0.5,0.3,0.7,0.7,0.7,1.5H295z M305.1,34.9l-1.6-0.6c-0.5-0.2-0.8-0.4-0.8-0.7c0-0.2,0.1-0.3,0.3-0.5c0.2-0.1,0.5-0.2,0.8-0.2
			c0.4,0,0.6,0.1,0.8,0.2c0.2,0.1,0.3,0.3,0.3,0.5h1.5c0-0.6-0.3-1.1-0.7-1.4c-0.5-0.4-1.1-0.6-2-0.6c-0.9,0-1.6,0.2-2.1,0.5
			c-0.5,0.3-0.8,0.8-0.8,1.4c0,0.9,0.5,1.5,1.6,1.9l1.5,0.5c0.3,0.1,0.5,0.2,0.7,0.3c0.1,0.1,0.2,0.3,0.2,0.5c0,0.2-0.1,0.4-0.3,0.5
			c-0.2,0.2-0.5,0.2-0.9,0.2c-0.9,0-1.4-0.3-1.4-1h-1.5c0,0.7,0.3,1.3,0.8,1.7c0.5,0.4,1.3,0.6,2.2,0.6c0.9,0,1.6-0.2,2.2-0.6
			c0.5-0.4,0.8-0.9,0.8-1.4c0-0.4-0.1-0.8-0.4-1.1C306,35.3,305.6,35.1,305.1,34.9z M312.3,34.9l-1.6-0.6c-0.5-0.2-0.8-0.4-0.8-0.7
			c0-0.2,0.1-0.3,0.3-0.5c0.2-0.1,0.5-0.2,0.8-0.2s0.6,0.1,0.8,0.2c0.2,0.1,0.3,0.3,0.3,0.5h1.5c0-0.6-0.3-1.1-0.7-1.4
			c-0.5-0.4-1.1-0.6-2-0.6c-0.9,0-1.6,0.2-2.1,0.5s-0.8,0.8-0.8,1.4c0,0.9,0.5,1.5,1.6,1.9l1.5,0.5c0.3,0.1,0.5,0.2,0.7,0.3
			c0.1,0.1,0.2,0.3,0.2,0.5c0,0.2-0.1,0.4-0.3,0.5c-0.2,0.2-0.5,0.2-0.9,0.2c-0.9,0-1.4-0.3-1.4-1H308c0,0.7,0.3,1.3,0.8,1.7
			c0.5,0.4,1.3,0.6,2.2,0.6c0.9,0,1.6-0.2,2.2-0.6c0.5-0.4,0.8-0.9,0.8-1.4c0-0.4-0.1-0.8-0.4-1.1C313.3,35.3,312.9,35.1,312.3,34.9
			z M317.4,37.1c-0.2-0.3-0.5-0.4-0.9-0.4c-0.4,0-0.7,0.1-0.9,0.3c-0.2,0.2-0.3,0.4-0.3,0.7c0,0.3,0.1,0.5,0.3,0.7
			c0.2,0.2,0.4,0.3,0.7,0.3c-0.1,0.3-0.2,0.5-0.5,0.7c-0.2,0.2-0.5,0.4-0.8,0.5l1.2,0.6c0.2-0.1,0.5-0.3,0.7-0.4
			c0.6-0.6,0.9-1.2,0.9-1.8C317.8,37.7,317.7,37.4,317.4,37.1z M183.8,52.8c-0.5-0.2-1.1-0.3-1.7-0.3c-1.3,0-2.2,0.4-3,1.2
			c-0.8,0.8-1.1,2-1.1,3.5c0,1.5,0.4,2.7,1.1,3.5c0.7,0.8,1.7,1.2,2.9,1.2c1.2,0,2.2-0.4,3-1.2c0.8-0.8,1.1-2,1.1-3.5
			c0-1.5-0.4-2.7-1.1-3.5C184.8,53.3,184.3,53,183.8,52.8z M183.9,59.6c-0.4,0.6-1,0.8-1.7,0.8c-0.7,0-1.3-0.3-1.7-0.8
			c-0.4-0.6-0.7-1.3-0.7-2.4c0-1,0.2-1.8,0.7-2.4c0.4-0.6,1-0.8,1.7-0.8c0.7,0,1.3,0.3,1.7,0.8c0.4,0.6,0.6,1.4,0.6,2.4
			C184.6,58.2,184.4,59,183.9,59.6z M191.8,54.8c-1,0-1.7,0.4-2.1,1.3l-0.2-1.2h-1.4v6.7h1.6v-3.1c0-0.8,0.2-1.4,0.5-1.7
			c0.3-0.4,0.7-0.6,1.1-0.6c0.4,0,0.8,0.1,1,0.4c0.2,0.3,0.4,0.6,0.4,1.1v3.9h1.6v-3.9c0-0.9-0.2-1.6-0.6-2.2
			C193.3,55,192.7,54.8,191.8,54.8z M202,57.9c0-0.3-0.1-0.7-0.2-1.1c-0.1-0.4-0.3-0.7-0.5-1c-0.5-0.7-1.2-1-2.2-1
			c-0.9,0-1.6,0.3-2.2,0.9c-0.6,0.7-0.9,1.5-0.9,2.6c0,1.1,0.3,1.9,0.9,2.6c0.6,0.6,1.3,1,2.2,1c0.8,0,1.4-0.2,1.9-0.6
			c0.5-0.4,0.8-0.9,0.9-1.6h-1.7c-0.1,0.6-0.5,0.9-1.2,0.9c-0.5,0-0.9-0.2-1.1-0.5c-0.3-0.3-0.4-0.8-0.4-1.3h4.4
			C202,58.5,202,58.2,202,57.9z M197.6,57.7c0-0.5,0.2-0.9,0.5-1.2c0.3-0.3,0.6-0.5,1.1-0.5c0.3,0,0.5,0,0.6,0.1
			c0.5,0.2,0.7,0.7,0.7,1.5H197.6z M213.6,57.1c0.4-0.5,0.5-1,0.5-1.6c0-0.8-0.3-1.5-0.9-2c-0.6-0.5-1.4-0.8-2.5-0.8h-3.3v9h1.6
			v-3.5h1.2l2,3.5h2.1l-2.4-3.7C212.8,57.9,213.3,57.5,213.6,57.1z M210.7,57.1h-1.5v-3h1.7c0.6,0,1,0.1,1.2,0.4
			c0.3,0.3,0.4,0.6,0.4,1.1c0,0.4-0.2,0.8-0.5,1.1C211.7,57,211.3,57.1,210.7,57.1z M216.2,61.7h1.6v-6.8h-1.6V61.7z M217,51.8
			c-0.3,0-0.6,0.1-0.7,0.3c-0.2,0.2-0.3,0.4-0.3,0.7c0,0.3,0.1,0.5,0.3,0.7c0.2,0.2,0.4,0.3,0.7,0.3c0.3,0,0.6-0.1,0.7-0.3
			c0.2-0.2,0.3-0.4,0.3-0.7c0-0.3-0.1-0.5-0.3-0.7C217.5,51.9,217.3,51.8,217,51.8z M224.6,55.8c-0.4-0.7-1.1-1-1.9-1
			c-0.8,0-1.5,0.3-2.1,1c-0.6,0.7-0.9,1.5-0.9,2.6c0,1.1,0.3,1.9,0.9,2.6c0.6,0.7,1.3,1,2.2,1s1.5-0.4,1.9-1.2l0.2,1h1.3v-9.5h-1.7
			V55.8z M224.6,58.7c0,0.5-0.2,0.9-0.5,1.2c-0.3,0.3-0.7,0.5-1.1,0.5c-0.5,0-0.9-0.2-1.2-0.6c-0.3-0.4-0.5-0.9-0.5-1.5
			c0-0.6,0.2-1.1,0.5-1.5c0.3-0.4,0.7-0.6,1.2-0.6c0.5,0,0.8,0.1,1.1,0.4c0.3,0.3,0.5,0.7,0.5,1.2V58.7z M234,57.9
			c0-0.3-0.1-0.7-0.2-1.1c-0.1-0.4-0.3-0.7-0.5-1c-0.5-0.7-1.2-1-2.2-1c-0.9,0-1.6,0.3-2.2,0.9c-0.6,0.7-0.9,1.5-0.9,2.6
			c0,1.1,0.3,1.9,0.9,2.6c0.6,0.6,1.3,1,2.2,1c0.8,0,1.4-0.2,1.9-0.6c0.5-0.4,0.8-0.9,0.9-1.6h-1.7c-0.1,0.6-0.5,0.9-1.2,0.9
			c-0.5,0-0.9-0.2-1.1-0.5c-0.3-0.3-0.4-0.8-0.4-1.3h4.4C234,58.5,234,58.2,234,57.9z M229.6,57.7c0-0.5,0.2-0.9,0.5-1.2
			c0.3-0.3,0.6-0.5,1.1-0.5c0.2,0,0.5,0,0.6,0.1c0.5,0.2,0.7,0.7,0.7,1.5H229.6z M241.6,52.7l-3.1,9h1.7l0.6-1.9h3.3l0.6,1.9h1.7
			l-3-9H241.6z M241.3,58.5l1.3-3.9l1.2,3.9H241.3z M250.4,60.6c-0.5,0-0.8-0.3-0.8-0.8V56h1.8V55h-1.8v-1.8h-1.6V55H247V56h0.9v3.8
			c0,0.7,0.2,1.2,0.6,1.6c0.2,0.2,0.4,0.3,0.7,0.4c0.3,0.1,0.6,0.1,0.9,0.1c0.4,0,0.8-0.1,1.4-0.4l-0.2-1.2
			C251,60.5,250.6,60.6,250.4,60.6z M259.7,54.8c-1,0-1.7,0.2-2.3,0.5c-0.5,0.3-0.8,0.9-0.8,1.7h1.8c0-0.3,0.1-0.6,0.3-0.7
			c0.2-0.2,0.6-0.3,1-0.3c0.4,0,0.7,0.1,0.9,0.3c0.2,0.2,0.3,0.6,0.3,1V58c-0.7-0.2-1.3-0.3-1.9-0.3c-0.9,0-1.5,0.2-2,0.5
			c-0.5,0.3-0.7,0.8-0.7,1.4s0.2,1.1,0.7,1.5c0.5,0.4,1.2,0.6,2,0.6c0.9,0,1.6-0.4,2-1.1l0.1,0.9h1.4v-4.3c0-0.5-0.1-0.8-0.2-1.2
			C261.9,55.3,261,54.8,259.7,54.8z M260.5,60.2c-0.3,0.3-0.7,0.5-1.1,0.5c-0.4,0-0.8-0.1-1-0.3c-0.2-0.2-0.3-0.4-0.3-0.6
			c0-0.6,0.4-0.9,1.3-0.9c0.5,0,1,0.1,1.5,0.2C260.9,59.5,260.8,59.9,260.5,60.2z M267.3,54.1h2.8v7.6h1.6v-7.6h2.8v-1.4h-7.2V54.1z
			 M276.8,51.8c-0.3,0-0.6,0.1-0.7,0.3c-0.2,0.2-0.3,0.4-0.3,0.7c0,0.3,0.1,0.5,0.3,0.7c0.2,0.2,0.4,0.3,0.7,0.3
			c0.3,0,0.6-0.1,0.7-0.3c0.2-0.2,0.3-0.4,0.3-0.7c0-0.3-0.1-0.5-0.3-0.7C277.3,51.9,277.1,51.8,276.8,51.8z M276,61.7h1.6v-6.8H276
			V61.7z M288.2,54.8c-1.1,0-1.9,0.5-2.3,1.5c-0.2-0.5-0.5-0.8-0.8-1.1c-0.4-0.3-0.8-0.4-1.4-0.4c-1,0-1.7,0.4-2.1,1.3l-0.2-1.2
			h-1.4v6.7h1.6v-3.1c0-0.8,0.2-1.4,0.5-1.7c0.3-0.4,0.7-0.6,1.1-0.6c0.4,0,0.8,0.1,1,0.4c0.2,0.3,0.4,0.6,0.4,1.1v3.9h1.6v-3.2
			c0-0.8,0.2-1.3,0.4-1.7c0.3-0.4,0.6-0.6,1.1-0.6c0.4,0,0.8,0.1,1,0.4c0.2,0.3,0.4,0.6,0.4,1.1v3.9h1.7v-3.9c0-0.9-0.2-1.6-0.6-2.2
			C289.7,55,289,54.8,288.2,54.8z M298.4,57.9c0-0.3-0.1-0.7-0.2-1.1c-0.1-0.4-0.3-0.7-0.5-1c-0.5-0.7-1.2-1-2.2-1
			c-0.9,0-1.6,0.3-2.2,0.9c-0.6,0.7-0.9,1.5-0.9,2.6c0,1.1,0.3,1.9,0.9,2.6c0.6,0.6,1.3,1,2.2,1c0.8,0,1.4-0.2,1.9-0.6
			c0.5-0.4,0.8-0.9,0.9-1.6h-1.7c-0.1,0.6-0.5,0.9-1.2,0.9c-0.5,0-0.9-0.2-1.1-0.5c-0.2-0.3-0.4-0.8-0.4-1.3h4.4
			C298.4,58.5,298.4,58.2,298.4,57.9z M294,57.7c0-0.5,0.2-0.9,0.5-1.2c0.3-0.3,0.6-0.5,1.1-0.5c0.2,0,0.5,0,0.6,0.1
			c0.5,0.2,0.7,0.7,0.7,1.5H294z"/>
	</g>
</g>
<path class="st2" d="M80.4,66.2c-12.3-6.5-26-14.4-26-42.9c0-0.9,0-5.7,0.1-5.9c0.1-0.3,1.3-1.2,1.4-1.4c0.4-0.5,0.6-0.8,0.6-1.1
	c0-1.1-2.4-1.1-3.2-1.1l-7.9-0.3c0.1,3,0.3,12.1,0.3,14c0,7.6-0.9,18.9-10.6,29.1c-4.5,4.6-8.2,6.9-15.2,10.2l6.9,6.9
	c13.8-9,18.4-13.9,23.6-26.1c5.8,12.6,10.6,17.6,23.8,25.7L80.4,66.2z"/>
<path class="st2" d="M149.8,42.9l-2.4-8.1c-3.3,1.5-4.3,1.9-12.6,5.8c-1.6-4.7-4.8-7.2-9.6-7.2c-3.1,0-5.2,1.1-6.1,1.5
	c1.2-1.8,1.8-2.8,4-7c4.8-0.6,10.6-1.2,17-2.7l0.5-7.9c-4.2,1.6-7.4,2.5-13.9,3.6c0.4-0.8,2.1-4.7,2.2-4.8c0.1,0,1.5-0.6,1.6-0.7
	c0.4-0.1,0.7-0.4,0.7-0.8c0-0.5-1.2-0.6-1.4-0.7l-8.9-1.6c-0.9,3.1-1.8,5.6-3.5,9.4c-6.2,0.2-9.3,0.1-13.6-0.3l0.9,7.4
	c3,0,5.2-0.1,9.2-0.3c-4.8,8.4-8.4,13.5-14,19.5l7,4.3c3.9-6.4,8.2-12.8,15.1-12.8c4.1,0,5,2.5,5.4,4.7
	c-10.6,5.5-17.2,8.8-17.2,17.6c0,1,0,4.1,2.7,6.9c4.5,4.7,12.7,4.7,16.7,4.7c2.3,0,10.1,0,16.9-1.1v-8c-6,1.3-12,2.3-18.1,2.3
	c-5.2,0-10.6-0.9-10.6-5.5c0-5,7.4-8.6,10.1-10c-0.1,3.1-0.1,6.6-0.4,10.6h8.2c0-2.4-0.1-11.2-0.1-14
	C140.8,45.9,144.2,44.7,149.8,42.9z"/>
</svg>
