<?xml version="1.0" encoding="utf-8"?>
<!-- Generator: Adobe Illustrator 23.0.3, SVG Export Plug-In . SVG Version: 6.00 Build 0)  -->
<svg version="1.1" id="レイヤー_1" xmlns="http://www.w3.org/2000/svg" xmlns:xlink="http://www.w3.org/1999/xlink" x="0px"
	 y="0px" viewBox="0 0 251 93" style="enable-background:new 0 0 251 93;" xml:space="preserve">
<style type="text/css">
	.st0{fill:#FDFDFF;}
	.st1{fill:#192F60;}
</style>
<g id="長方形_617">
	<g>
		<rect x="0" y="0" class="st0" width="251" height="93"/>
	</g>
</g>
<path class="st1" d="M83.1,55.1l-3.1-2.1H68.2c0.3-0.4,1.6-2.1,2-2.3c0.3-0.2,1.7-0.6,1.9-0.8c0.1-0.1,0.1-0.3,0.1-0.5
	c0-0.6-0.9-1.1-1.3-1.2l-5-2.1c4.3-3.5,8.9-7.6,14.5-16.9l-2.9-2.1H62.7l0.6-0.8c0.4-0.6,0.9-0.7,1.4-0.9c0.3-0.1,1-0.4,1-0.9
	c0-0.6-0.9-0.8-1.2-1l-7.5-2.5c-1.4,2.5-3.1,5.3-6.9,9.3c-4.3,4.5-7.2,5.8-9.9,7.1l1.3,1h-5.7v-7.7c1.2-0.3,1.3-0.3,3.2-0.9
	c0.9-0.3,0.9-0.3,1.2-0.3c0.4,0,2.1,0.3,2.5,0.3c0.1,0,0.7-0.1,0.7-0.6c0-0.1-0.1-0.6-0.6-1.3l-4.2-5.9c-6.6,2.6-11.1,3.5-20.9,3.5
	l3,7.3c2-0.1,3.8-0.2,7.2-0.6v6.3h-8.8v7.6h7.8c-1.6,4.8-4.8,12.8-10.4,18.9l6.7,4.9c2.1-2.8,3.3-4.5,4.7-7.4v20.7h7.9V58.1
	c1.7,2.1,2.8,3.1,3.6,3.8l5-5.9c-4.8-3.3-6.9-6.3-8.7-9.6v-0.6h6.5v-7l4.4,3.4c1.1-0.6,2.1-1.2,4.4-3.1c2.3,1.9,4,4,5,5.3
	c-5.5,3.8-11.8,5-14.8,5.6l5.7,6.2c5.4-1.9,9-3.7,14.5-7C56.1,55.5,50,60.4,41.3,63.6l5.7,5.9c3.1-1.4,5-2.6,7.2-4.1
	c2.1,2,3.8,4,4.9,5.7c-4.5,2.2-8.9,4-19,5.5l4.8,7.1C63.3,80.5,75.9,69.8,83.1,55.1z M68.4,33.3c-3.1,3.7-4.9,5.4-6.5,6.8
	c-2.8-3.4-4.7-4.9-5.7-5.7l1-1.1H68.4z M72,59.4c-1.1,1.9-2.4,4-7,7.8c-1.9-2.8-3.5-4.3-5.3-5.9c1.1-1,1.3-1.1,2.1-1.8H72z"/>
<path class="st1" d="M157.3,36.6h-11.5c0.1-1.6,0.3-8.7,0.4-10.1c0.1-0.8,0.2-0.8,1.3-1.9c0.2-0.2,0.4-0.4,0.4-0.8
	c0-0.9-1.1-1-1.7-1l-7.7-0.4c0,6.4,0,6.5-0.1,14.2h-5.3v7h5c-0.3,3.7-1,10.1-3.3,17.3c-1.8,5.8-3.6,8.8-4.8,10.6v-2.1
	c-3.9,0.4-5,0.4-11.6,1v-3.3h11.4v-5.3h-11.4V59h11.1V40.3h-11.1v-3h14v-5.4h-14v-3.6c1.6-0.2,4.6-0.6,4.7-0.6
	c0.5-0.1,2.6-0.5,3.1-0.5c0.4,0,2.1,0.6,2.3,0.6c0.6,0,0.9-0.3,0.9-0.6c0-0.4-0.3-0.7-0.5-1.1l-3.5-4.6c-8.2,2.3-16.8,2.4-25.3,2.1
	l2.5,5.6c4.9,0,7.2-0.1,8.7-0.3v2.9H97.4v5.4h13.9v3h-11V59h11v2.9H99.8v5.3h11.5V71c-2.5,0.2-9.2,0.7-13.6,0.8l1,6.4
	c0.1,1,0.5,1.3,1.1,1.3c0.6,0,0.9-0.3,1.4-1.1c0.4-0.6,0.6-0.6,2.2-0.8c3.8-0.4,20.6-2.3,24.1-2.8c-1.9,2.2-2.6,2.9-3.6,3.8l7.2,3.6
	c10.2-12.8,13.1-24.8,14.3-38.8h4.5c-0.2,12.6-1.8,24.8-2.8,28.8c-0.6,2.2-1.8,3.8-5,3.8c-1.3,0-2.6-0.2-3.3-0.4l3.4,7.4
	c7.8-0.1,10.5-1.9,12.2-10.8C156.8,60.2,157.1,42.7,157.3,36.6z M123.1,47.5h-4.5v-3h4.5V47.5z M123.1,54.8h-4.5v-3.1h4.5V54.8z
	 M111.3,47.5h-4.5v-3h4.5V47.5z M111.3,54.8h-4.5v-3.1h4.5V54.8z"/>
<path class="st1" d="M229.5,45.3c-1.5-1.7-2.9-3.2-5.9-5.4l-3,3.4c2.3,1.7,4,3.3,5.9,5.4L229.5,45.3z M223.7,51.7
	c-1.8-2.2-3.5-3.7-5.9-5.5l-2.9,3.4c2.8,2.1,4.3,3.5,5.8,5.5L223.7,51.7z M226.1,33.2V25c-13.4,4.1-35.4,5.8-50.7,5.7l1.2,7.9
	c7.1-1,17.5-1.8,27-2.6c-2.5,2.3-6,5.6-9.4,10.8c-3.1,4.6-4.8,9.3-4.8,14.1c0,4.8,1.8,9.4,5.3,12.7c5.7,5.7,13.7,7.2,17.5,7.9
	l2.8-8.6c-2.9-0.1-7.9-0.4-12.5-3.6c-2-1.4-5.1-4.3-5.1-9.2c0-5.4,3.4-11.8,8.7-17C214.9,34,222.8,33.5,226.1,33.2z"/>
</svg>
