<?xml version="1.0" encoding="utf-8"?>
<!-- Generator: Adobe Illustrator 23.0.3, SVG Export Plug-In . SVG Version: 6.00 Build 0)  -->
<svg version="1.1" id="レイヤー_1" xmlns="http://www.w3.org/2000/svg" xmlns:xlink="http://www.w3.org/1999/xlink" x="0px"
	 y="0px" viewBox="0 0 285 81.4" style="enable-background:new 0 0 285 81.4;" xml:space="preserve">
<style type="text/css">
	.st0{fill:#FDFDFF;}
	.st1{fill-rule:evenodd;clip-rule:evenodd;fill:#192F60;}
</style>
<g id="長方形_617_1_">
	<g>
		<rect x="0" y="0" class="st0" width="285" height="81.4"/>
	</g>
</g>
<g id="移動で_人を_幸せに_x3002__2_">
	<g>
		<path class="st1" d="M54,16.8h20.8V9.7H54V8.2c0-0.4,0.3-0.7,0.9-1.3c0.7-0.6,0.9-0.8,0.9-1.1c0-0.8-1.2-1.1-2.1-1.1l-8.4-0.3v5.3
			H24.6v7.2h20.7v3.5H18.8v7.1h13c1.1,2.9,1.8,5.1,2.4,7.4H19.7v7.5h25.5V48H22.9v7.4h22.3v10.2h8.9V55.4h22.2V48H54.2v-5.7h25.3
			v-7.5H64.5c1.4-3,2.1-4.5,3.2-7.4h12.7v-7.1H54V16.8z M57.9,27.4c-0.6,1.7-1.6,4.2-3.1,7.4H44.3c-0.9-3-1.7-5.2-2.8-7.4H57.9z
			 M129.1,38.9c-2.1,0-3.1-0.3-4.2-0.5l1.8,7.4c0.7,0.1,2.3,0.3,4.1,0.3c5.3,0,7.6-1.6,8.7-4.5c0.7-2,0.9-4.1,1.2-12.5
			c6.7-0.8,9.9-1.1,13.1-1.2l-0.1-7.8c-6.5,1.1-8.8,1.3-12.8,1.9l0.4-10.6c0.1-0.3,0.1-0.5,0.6-0.8c0.6-0.4,0.8-0.6,0.8-0.9
			c0-0.4,0-0.8-2.3-1.1l-7.2-0.8c0.8,6.7,0.7,11.9,0.6,15.2c-8.2,1.1-10.8,1.4-15,1.9c0-8.1,0.1-8.6,0.1-9.7c0-0.1,0.1-0.6,0.7-1.1
			c1.1-0.7,1.2-0.8,1.2-1.1c0-0.9-0.9-1-2.4-1.2l-8-1.1c0.4,5,0.4,12.3,0.4,15.2c-5.3,0.6-7.4,0.8-13.1,1.3l0.3,7.8
			c6.4-1,7.1-1.1,12.8-1.9l0.1,9.7c0.1,13.2,2,18.1,18,18.1c9.5,0,15.9-0.7,19-1.1l0.6-8.5c-3.3,0.9-8.7,2.5-18.2,2.5
			c-10.5,0-11.8-2.1-11.8-10.1c0-0.4,0-4.7,0.1-11.8c6.4-0.8,7.6-1.1,15.1-2C133.6,37.7,133.4,38.9,129.1,38.9z M223,19.6v-8.2
			c-2.7,0.9-8.5,2.9-16.8,2.9c-3.8,0-7-0.5-9.1-0.8v7.8c3.8,0.4,7,0.4,7.6,0.4C212.6,21.7,219.8,20.2,223,19.6z M182.3,46.9
			c-1-3-1-8.5-1-9.7c0-10.7,3.1-23.5,4.1-24.1c0.1-0.1,1.1-0.4,1.2-0.5c0.3-0.2,0.4-0.5,0.4-0.6c0-0.6-1.3-1.1-1.8-1.3L177.9,8
			c-1,4.2-2,8.5-3,16.1c-0.5,4.2-1.1,9.4-1.1,14c0,5.5,0.8,12,2.9,18.6c0.9,2.6,1.5,3.8,2.6,5.6l5.6-2.2c0.7-4.5,1.8-10.1,4.3-15.9
			l-4.2-2.3C183.6,44.7,183.2,45.4,182.3,46.9z M202.3,41.6l-7.7,1.1c0.2,12,2.9,15.4,15.8,15.4c7.5,0,12.3-0.7,16-1.3V48
			c-2.6,0.7-8.1,2.2-16.2,2.2C203.1,50.2,202.4,48.3,202.3,41.6z M255.8,44.2c-6,0-11,4.8-11,10.9c0,6,5,11,11,11
			c6-0.1,10.9-5,10.9-11C266.7,49,261.7,44.2,255.8,44.2z M255.8,62.6c-4.2,0.1-7.6-3.3-7.6-7.5c0-4.2,3.5-7.5,7.6-7.5
			c4.1,0,7.5,3.3,7.5,7.5C263.3,59.3,259.9,62.6,255.8,62.6z"/>
	</g>
</g>
</svg>
