<svg xmlns="http://www.w3.org/2000/svg" width="153.063" height="36" viewBox="0 0 153.063 36">
  <defs>
    <style>
      .cls-1 {
        fill: #192f60;
        fill-rule: evenodd;
      }
    </style>
  </defs>
  <path id="logo_navy.svg" class="cls-1" d="M63.61,42.787L61.125,60.519H57.79l0.328-2.043-0.084-.1a6.609,6.609,0,0,1-4.758,2.486,5.165,5.165,0,0,1-4.116-2.051,7.533,7.533,0,0,1-1.7-4.963,11.507,11.507,0,0,1,3.158-8.326q3.159-3.278,8.822-3.277A14.986,14.986,0,0,1,63.61,42.787Zm-5.1,12.606,1.446-10.236q-0.538-.038-1.036-0.038a7.283,7.283,0,0,0-5.989,2.515,8.66,8.66,0,0,0-2.054,5.619,5.791,5.791,0,0,0,.99,3.5,2.992,2.992,0,0,0,2.51,1.359,4.3,4.3,0,0,0,2.653-1.2A5.111,5.111,0,0,0,58.513,55.393ZM72.569,38.3l-0.633,4.49a7.991,7.991,0,0,1,3-.539,6.717,6.717,0,0,1,5.215,2.35,8.521,8.521,0,0,1,2.1,5.9A10.74,10.74,0,0,1,79.4,57.9a9.951,9.951,0,0,1-7.807,3.181H69.383L68.212,69.6H64.878l3.129-22.415a8.442,8.442,0,0,0-1.948,2,5.556,5.556,0,0,1-.989,1.233c-0.1,0-.154-0.083-0.154-0.25a5.643,5.643,0,0,1,1.008-2.554,10.679,10.679,0,0,1,2.409-2.8l0.9-6.515h3.334Zm-0.979,6.977L69.786,58.225H71.4a6.835,6.835,0,0,0,5.417-2.3A7.97,7.97,0,0,0,78.834,50.5a5.9,5.9,0,0,0-1.422-4.211A4.742,4.742,0,0,0,73.8,44.773,5.008,5.008,0,0,0,71.591,45.274Zm28.932-2.487L98.038,60.519H94.7l0.328-2.043-0.084-.1a6.609,6.609,0,0,1-4.758,2.486,5.166,5.166,0,0,1-4.116-2.051,7.533,7.533,0,0,1-1.7-4.963,11.507,11.507,0,0,1,3.158-8.326q3.159-3.278,8.822-3.277A14.988,14.988,0,0,1,100.523,42.787Zm-5.1,12.606,1.446-10.236q-0.538-.038-1.036-0.038a7.283,7.283,0,0,0-5.989,2.515,8.66,8.66,0,0,0-2.054,5.619,5.791,5.791,0,0,0,.99,3.5,2.992,2.992,0,0,0,2.51,1.359,4.3,4.3,0,0,0,2.653-1.2A5.111,5.111,0,0,0,95.427,55.393Zm13.532-12.606-0.449,3.139,0.089,0.061q2.822-3.468,5.854-3.469a3.749,3.749,0,0,1,3.187,1.513,6.343,6.343,0,0,1,1.133,3.9,9.052,9.052,0,0,1-.115,1.408l-1.693,11.178h-3.3l1.613-11.294a7.1,7.1,0,0,0,.1-1.1,3.359,3.359,0,0,0-.578-2.119,1.768,1.768,0,0,0-1.444-.733,3.07,3.07,0,0,0-1.125.251,6.191,6.191,0,0,0-1.338.77,15.541,15.541,0,0,0-1.762,1.58,4.406,4.406,0,0,0-1.09,1.349l-1.615,11.3h-3.3L105.6,42.787h3.355Zm29.609-9.194-0.48,3.353h-8.067l-3.3,23.573h-3.7l3.3-23.573h-8.066l0.479-3.353h19.837Zm10.614,9.194L146.7,60.519h-3.335l0.327-2.043-0.083-.1a6.61,6.61,0,0,1-4.758,2.486,5.167,5.167,0,0,1-4.116-2.051,7.535,7.535,0,0,1-1.7-4.963,11.508,11.508,0,0,1,3.158-8.326q3.159-3.278,8.823-3.277A14.987,14.987,0,0,1,149.182,42.787Zm-5.1,12.606,1.445-10.236q-0.537-.038-1.036-0.038a7.281,7.281,0,0,0-5.989,2.515,8.659,8.659,0,0,0-2.055,5.619,5.792,5.792,0,0,0,.991,3.5,2.991,2.991,0,0,0,2.509,1.359,4.3,4.3,0,0,0,2.654-1.2A5.127,5.127,0,0,0,144.086,55.393Zm23.452-12.606-7.108,8.8,4.478,8.929h-3.569l-3.229-6.613-5.092,6.613h-4.1l7.7-9.419-4.169-8.313h3.569l2.8,5.98,4.591-5.98h4.127Zm8.12-3.623a1.941,1.941,0,0,0,1.921-1.927,1.881,1.881,0,0,0-.567-1.378,1.892,1.892,0,0,0-2.707,0,1.877,1.877,0,0,0-.566,1.378A1.939,1.939,0,0,0,175.658,39.164ZM174.7,57.154l2.007-14.367H169.37v3.365H172.9L170.9,60.519h10.055s0.443-2.494,1.878-3.365H174.7ZM42.39,61.432c-0.73,5.578-3.929,8.173-7.886,8.122a10.255,10.255,0,0,1-4.734-1.168l0.786-3.047a6.675,6.675,0,0,0,3.549.995c2.242,0.029,4.151-1.37,4.636-4.853l3.614-27.888h3.653Z" transform="translate(-29.781 -33.594)"/>
</svg>
